<svg width="22" height="22" viewBox="0 0 22 22" fill="none" xmlns="http://www.w3.org/2000/svg">
    <path d="M21.0995 3.9375H17.4966V1.75C17.4966 0.784766 16.6888 0 15.6952 0H6.68822C5.69463 0 4.88681 0.784766 4.88681 1.75V3.9375H1.284C0.785802 3.9375 0.383301 4.32852 0.383301 4.8125V5.6875C0.383301 5.80781 0.48463 5.90625 0.608476 5.90625H2.30855L3.00378 20.207C3.04882 21.1395 3.84256 21.875 4.80237 21.875H17.5811C18.5437 21.875 19.3346 21.1422 19.3797 20.207L20.0749 5.90625H21.775C21.8988 5.90625 22.0002 5.80781 22.0002 5.6875V4.8125C22.0002 4.32852 21.5977 3.9375 21.0995 3.9375ZM15.4701 3.9375H6.91339V1.96875H15.4701V3.9375Z" fill="#DB4444"/>
    </svg>
    