<svg width="56" height="56" viewBox="0 0 56 56" fill="none" xmlns="http://www.w3.org/2000/svg">
    <g clip-path="url(#clip0_346_2084)">
    <path d="M16.333 30.3334H13.9997C11.4223 30.3334 9.33301 32.4227 9.33301 35V42C9.33301 44.5774 11.4223 46.6667 13.9997 46.6667H16.333C18.9103 46.6667 20.9997 44.5774 20.9997 42V35C20.9997 32.4227 18.9103 30.3334 16.333 30.3334Z" stroke="black" stroke-width="2" stroke-linecap="round" stroke-linejoin="round"/>
    <path d="M42 30.3334H39.6667C37.0893 30.3334 35 32.4227 35 35V42C35 44.5774 37.0893 46.6667 39.6667 46.6667H42C44.5773 46.6667 46.6667 44.5774 46.6667 42V35C46.6667 32.4227 44.5773 30.3334 42 30.3334Z" stroke="black" stroke-width="2" stroke-linecap="round" stroke-linejoin="round"/>
    <path d="M9.33301 35V28C9.33301 23.0493 11.2997 18.3014 14.8003 14.8007C18.301 11.3 23.049 9.33337 27.9997 9.33337C32.9504 9.33337 37.6983 11.3 41.199 14.8007C44.6997 18.3014 46.6663 23.0493 46.6663 28V35" stroke="black" stroke-width="2" stroke-linecap="round" stroke-linejoin="round"/>
    </g>
    <defs>
    <clipPath id="clip0_346_2084">
    <rect width="56" height="56" fill="white"/>
    </clipPath>
    </defs>
    </svg>
    